<svg xmlns="http://www.w3.org/2000/svg" viewBox="0 0 180 180">
  <defs>
    <linearGradient id="bg" x1="0" y1="0" x2="1" y2="1">
      <stop offset="0%" stop-color="#001233"/>
      <stop offset="50%" stop-color="#0077B6"/>
      <stop offset="100%" stop-color="#48CAE4"/>
    </linearGradient>
  </defs>
  <rect width="180" height="180" fill="url(#bg)"/>
  <g transform="translate(90,90) rotate(-45)">
    <path d="M0-54 C5-50 9-32 9-14 L25-4 C27-3 27-1 27 0 C27 1 27 3 25 4 L9 14 C9 32 5 50 0 54 C-5 50 -9 32 -9 14 L-25 4 C-27 3 -27 1 -27 0 C-27-1 -27-3 -25-4 L-9-14 C-9-32 -5-50 0-54Z" fill="white" opacity="0.95"/>
  </g>
</svg>
