<svg xmlns="http://www.w3.org/2000/svg" viewBox="0 0 100 100">
  <defs>
    <linearGradient id="bg" x1="0" y1="0" x2="1" y2="1">
      <stop offset="0%" stop-color="#001233"/>
      <stop offset="50%" stop-color="#0077B6"/>
      <stop offset="100%" stop-color="#48CAE4"/>
    </linearGradient>
  </defs>
  <rect width="100" height="100" rx="22" fill="url(#bg)"/>
  <g transform="translate(50,50) rotate(-45)">
    <path d="M0-30 C3-28 5-18 5-8 L14-2 C15-1.5 15-0.5 15 0 C15 0.5 15 1.5 14 2 L5 8 C5 18 3 28 0 30 C-3 28 -5 18 -5 8 L-14 2 C-15 1.5 -15 0.5 -15 0 C-15-0.5 -15-1.5 -14-2 L-5-8 C-5-18 -3-28 0-30Z" fill="white" opacity="0.95"/>
  </g>
</svg>
