<svg xmlns="http://www.w3.org/2000/svg" viewBox="0 0 512 512">
  <defs>
    <linearGradient id="bg" x1="0" y1="0" x2="1" y2="1">
      <stop offset="0%" stop-color="#001233"/>
      <stop offset="50%" stop-color="#0077B6"/>
      <stop offset="100%" stop-color="#48CAE4"/>
    </linearGradient>
  </defs>
  <rect width="512" height="512" rx="112" fill="url(#bg)"/>
  <g transform="translate(256,256) rotate(-45)">
    <path d="M0-154 C15-143 26-92 26-41 L72-10 C77-8 77-3 77 0 C77 3 77 8 72 10 L26 41 C26 92 15 143 0 154 C-15 143 -26 92 -26 41 L-72 10 C-77 8 -77 3 -77 0 C-77-3 -77-8 -72-10 L-26-41 C-26-92 -15-143 0-154Z" fill="white" opacity="0.95"/>
  </g>
</svg>
