<svg xmlns="http://www.w3.org/2000/svg" viewBox="0 0 512 512">
  <defs>
    <linearGradient id="bg" x1="0" y1="0" x2="1" y2="1">
      <stop offset="0%" stop-color="#001233"/>
      <stop offset="100%" stop-color="#0077B6"/>
    </linearGradient>
    <linearGradient id="shine" x1="0" y1="0" x2="0" y2="1">
      <stop offset="0%" stop-color="#48CAE4" stop-opacity="0.4"/>
      <stop offset="100%" stop-color="#001233" stop-opacity="0"/>
    </linearGradient>
  </defs>
  <rect width="512" height="512" rx="112" fill="url(#bg)"/>
  <rect width="512" height="512" rx="112" fill="url(#shine)"/>
  <!-- Radar rings -->
  <circle cx="256" cy="256" r="186" fill="none" stroke="#48CAE4" stroke-opacity="0.12" stroke-width="2"/>
  <circle cx="256" cy="256" r="134" fill="none" stroke="#48CAE4" stroke-opacity="0.18" stroke-width="2"/>
  <circle cx="256" cy="256" r="82" fill="none" stroke="#48CAE4" stroke-opacity="0.25" stroke-width="2"/>
  <!-- Airplane -->
  <g transform="translate(256,246) rotate(-45)">
    <path d="M0-144 C10-133 22-88 22-40 L67-16 C75-12 75 0 67 4 L22 26 C22 72 10 123 0 144 C-10 123 -22 72 -22 26 L-67 4 C-75 0 -75-12 -67-16 L-22-40 C-22-88 -10-133 0-144Z" fill="white" opacity="0.95"/>
    <!-- Tail fin -->
    <path d="M0 93 L16 123 L0 112 L-16 123Z" fill="white" opacity="0.8"/>
  </g>
  <!-- Tracking dot -->
  <circle cx="317" cy="184" r="12" fill="#48CAE4" opacity="0.9"/>
  <circle cx="317" cy="184" r="22" fill="#48CAE4" opacity="0.3"/>
</svg>
